<?xml version="1.0" standalone="no"?>
<!DOCTYPE svg PUBLIC "-//W3C//DTD SVG 20010904//EN"
 "http://www.w3.org/TR/2001/REC-SVG-20010904/DTD/svg10.dtd">
<svg version="1.0" xmlns="http://www.w3.org/2000/svg"
 width="922.000000pt" height="922.000000pt" viewBox="0 0 922.000000 922.000000"
 preserveAspectRatio="xMidYMid meet">
<metadata>
Created by potrace 1.11, written by Peter Selinger 2001-2013
</metadata>
<g transform="translate(0.000000,922.000000) scale(0.100000,-0.100000)"
fill="#000000" stroke="none">
<path d="M4300 9193 c-19 -1 -87 -8 -150 -13 -145 -13 -387 -53 -550 -90 -134
-31 -346 -90 -395 -111 l-30 -13 29 -4 c18 -2 47 6 75 21 25 13 66 27 91 30
45 6 45 6 107 -61 35 -37 63 -69 63 -72 0 -3 -21 -16 -46 -30 -41 -22 -50 -33
-71 -86 -22 -56 -28 -62 -76 -85 l-52 -24 -5 -57 c-3 -31 -10 -61 -15 -67 -6
-5 -35 -18 -65 -29 -30 -11 -70 -26 -88 -33 -28 -12 -34 -12 -41 0 -5 7 -6 22
-4 32 3 10 1 19 -5 19 -14 0 -42 -40 -42 -61 0 -31 -44 -71 -109 -101 -36 -16
-80 -43 -97 -59 l-31 -30 -18 70 -17 70 31 45 c17 24 31 47 31 49 0 2 -17 7
-37 11 -21 3 -49 9 -63 12 -21 6 -23 4 -12 -7 6 -7 12 -22 12 -32 0 -15 -5
-18 -22 -13 -13 3 -29 6 -36 6 -7 0 -17 11 -24 25 l-11 24 -27 -19 c-26 -19
-50 -26 -50 -15 0 2 5 15 11 29 7 14 9 32 6 40 -6 15 -10 15 -49 0 -168 -64
-420 -212 -433 -254 -3 -11 -25 -45 -48 -77 -24 -32 -51 -79 -61 -106 -13 -35
-38 -66 -96 -119 -77 -70 -121 -130 -107 -144 7 -7 67 39 156 122 31 28 91 69
134 89 55 27 110 67 190 138 118 106 189 156 275 196 52 24 52 24 87 5 38 -20
39 -25 29 -111 -6 -49 -9 -53 -34 -53 -15 0 -36 -10 -48 -23 -24 -25 -26 -35
-13 -55 6 -11 26 -5 90 27 54 28 81 37 81 28 0 -17 -44 -125 -76 -188 -13 -26
-40 -61 -61 -78 l-37 -30 11 -73 c5 -40 9 -76 7 -79 -2 -3 -39 -14 -84 -24
-87 -20 -110 -37 -32 -24 81 13 85 12 110 -33 l22 -41 -58 -61 c-32 -34 -67
-75 -77 -93 -10 -18 -31 -37 -47 -44 -37 -15 -36 -43 2 -79 38 -36 38 -62 -1
-170 -23 -67 -38 -92 -65 -114 -33 -26 -36 -27 -54 -11 -10 9 -20 29 -23 44
-6 28 -7 28 -53 20 -51 -10 -71 -1 -61 25 4 9 18 16 34 16 l28 1 -23 18 c-12
11 -40 22 -63 26 -89 15 -63 58 114 188 86 63 133 103 123 105 -9 2 -36 -8
-61 -22 -53 -32 -114 -34 -183 -7 l-50 20 11 -41 c9 -38 8 -43 -14 -60 -23
-20 -24 -20 -41 2 -20 25 -22 50 -8 99 l9 33 -31 -6 c-17 -3 -37 -6 -44 -6
-21 0 -17 -38 5 -50 17 -9 18 -14 9 -40 -5 -17 -25 -43 -43 -58 -82 -68 -94
-120 -35 -156 29 -17 31 -17 56 3 27 21 54 28 54 13 0 -5 -7 -30 -16 -55 -25
-74 -66 -100 -173 -107 -70 -5 -97 -12 -147 -37 -34 -18 -64 -29 -68 -26 -12
12 -6 69 10 91 15 22 15 22 -29 22 -55 0 -124 -23 -155 -53 -13 -12 -35 -47
-48 -77 -24 -55 -47 -80 -70 -80 -7 0 -10 8 -7 19 3 13 -2 20 -18 24 -52 14
-278 -190 -372 -335 -51 -79 -60 -88 -154 -145 -158 -98 -211 -170 -271 -368
-42 -136 -48 -181 -27 -189 13 -4 15 -17 13 -58 -3 -49 -5 -53 -30 -56 -32 -4
-35 4 -11 30 16 17 16 20 0 35 -16 16 -17 15 -28 -14 -13 -39 -51 -67 -68 -50
-6 6 -11 16 -11 22 0 5 33 105 74 220 70 203 97 317 76 330 -17 11 -49 -14
-74 -58 -24 -43 -74 -177 -120 -322 -19 -62 -46 -202 -46 -241 0 -3 8 -3 18 0
12 4 26 -1 37 -14 16 -18 20 -45 27 -168 4 -81 12 -188 18 -239 17 -157 13
-168 -41 -113 l-30 30 7 170 c7 169 7 170 -15 170 -16 0 -21 6 -21 24 0 14 5
28 10 31 8 5 7 11 -1 21 -17 20 -39 17 -39 -6 0 -11 -12 -50 -26 -87 -38 -101
-54 -190 -59 -332 -3 -69 -15 -191 -27 -271 -13 -85 -22 -192 -22 -260 0 -101
4 -128 34 -227 32 -107 50 -134 50 -74 0 42 23 58 55 37 13 -9 35 -16 48 -16
17 0 33 -13 56 -45 18 -25 39 -45 48 -45 13 0 15 -9 10 -55 -4 -40 -1 -71 12
-108 19 -54 98 -187 111 -187 4 0 10 9 13 20 3 11 10 20 16 20 16 0 80 -100
87 -137 4 -18 8 -33 10 -33 1 0 14 4 28 10 22 8 26 7 26 -10 0 -10 -4 -30 -9
-43 -11 -27 15 -101 83 -234 20 -40 47 -102 61 -139 37 -99 60 -129 144 -195
88 -69 191 -182 239 -262 19 -31 47 -101 63 -156 16 -55 43 -132 60 -170 l31
-70 -20 -32 -20 -32 80 -71 c44 -39 99 -80 122 -91 24 -11 84 -54 134 -95 75
-62 98 -87 128 -142 34 -67 36 -68 75 -68 32 0 50 -8 87 -39 61 -51 100 -69
170 -82 31 -6 68 -17 82 -24 14 -7 77 -65 141 -128 73 -72 142 -130 187 -157
40 -23 90 -59 112 -79 36 -32 42 -44 51 -100 5 -35 7 -77 4 -93 -10 -46 -61
-96 -103 -104 -52 -9 -68 -19 -81 -52 -13 -30 -47 -52 -81 -52 -25 0 -25 -16
0 -63 11 -20 20 -55 20 -76 0 -22 4 -41 10 -43 16 -5 -16 -106 -47 -142 -18
-23 -37 -35 -55 -35 -14 -1 -87 24 -162 54 -146 60 -176 62 -151 15 19 -36 19
-41 0 -34 -8 4 -15 2 -15 -4 0 -5 55 -46 123 -90 583 -378 1234 -620 1907
-706 316 -41 783 -46 1080 -11 1039 120 1982 571 2714 1299 359 357 644 753
875 1213 39 79 71 146 71 150 -1 5 -40 -68 -88 -162 -48 -93 -106 -199 -129
-235 -23 -36 -59 -93 -79 -128 -45 -75 -175 -249 -263 -352 -98 -115 -463
-480 -480 -480 -4 0 -17 -10 -28 -22 -11 -13 -43 -41 -71 -62 -28 -22 -49 -43
-46 -48 3 -5 1 -7 -4 -6 -9 3 -239 -160 -274 -194 -10 -10 -19 -17 -20 -16 -6
4 -68 -37 -68 -44 0 -4 -4 -8 -9 -8 -9 0 -191 -109 -201 -120 -3 -3 -18 -11
-33 -18 -15 -7 -26 -16 -23 -21 4 -5 -3 -7 -14 -4 -15 4 -18 9 -10 18 5 6 7
14 4 17 -3 3 -12 32 -19 65 l-14 58 33 35 c18 19 67 78 109 131 42 53 99 113
127 133 57 41 68 62 83 161 29 190 0 311 -86 367 -55 35 -68 55 -78 117 -6 42
-4 47 26 76 28 25 34 40 40 90 5 40 17 76 37 107 44 70 42 109 -8 152 -21 19
-45 35 -52 36 -8 0 -50 -16 -93 -35 -55 -24 -95 -35 -128 -35 l-48 0 -18 47
c-10 27 -27 59 -39 72 -45 50 -183 11 -491 -137 l-200 -97 -110 8 c-153 11
-208 3 -329 -43 -169 -64 -196 -58 -423 91 -84 56 -181 112 -216 124 l-62 23
-7 51 c-14 96 -77 189 -169 252 -33 22 -69 58 -89 89 l-32 50 -18 -32 c-28
-53 -44 -49 -37 9 5 47 4 50 -25 68 l-30 18 4 86 c5 79 3 89 -19 117 -13 18
-28 46 -33 63 -8 29 -5 35 34 75 68 68 106 207 106 394 0 85 -1 92 -20 92 -18
0 -20 7 -20 55 0 47 -3 55 -19 55 -17 0 -18 4 -10 43 16 74 114 255 257 477
77 118 154 231 171 252 17 20 68 55 114 79 86 45 170 116 217 184 26 38 27 43
17 102 l-10 62 64 93 c69 101 118 175 228 343 l71 110 -59 58 c-59 57 -59 57
-119 57 -75 0 -92 6 -92 34 0 11 -7 43 -15 70 -11 35 -15 96 -15 211 0 136 -3
171 -20 220 -11 32 -20 77 -20 99 0 35 5 45 36 70 l36 29 254 -9 c140 -5 258
-8 262 -7 11 4 -2 225 -15 248 -6 12 -23 27 -38 35 -27 14 -55 57 -55 83 0 9
-28 20 -81 32 -71 16 -84 23 -100 49 -11 17 -19 36 -19 41 0 6 25 23 55 38 46
22 59 25 79 15 22 -9 34 -5 102 37 115 72 144 100 144 141 0 24 5 34 15 34 9
0 36 20 60 44 43 42 45 46 45 104 l0 59 78 28 c42 15 81 32 86 36 6 5 -10 37
-38 78 -61 88 -70 140 -36 208 19 38 26 44 46 40 23 -4 23 -4 7 24 -10 16 -28
30 -46 33 -43 9 -45 8 -52 -14 -12 -36 -35 -50 -84 -50 -50 0 -66 11 -105 73
-9 15 -32 35 -50 44 -41 19 -91 101 -100 160 l-6 43 40 6 40 7 0 46 c0 26 7
56 15 67 10 14 14 48 15 127 0 106 0 107 -24 107 -31 0 -49 23 -41 52 10 31
70 93 129 130 48 31 49 31 113 21 36 -7 72 -18 82 -27 9 -8 61 -22 116 -31 55
-9 120 -22 144 -30 25 -8 53 -15 62 -15 17 0 17 3 4 41 -8 23 -15 43 -15 45 0
2 23 4 50 4 43 0 50 3 50 19 0 16 -9 21 -45 27 -41 6 -45 9 -45 35 0 35 -15
38 -31 7 -6 -13 -13 -24 -14 -25 -3 -5 -137 44 -200 72 -92 41 -194 104 -242
148 -24 22 -41 42 -39 44 3 3 110 -47 240 -110 129 -63 237 -113 240 -110 3 3
-2 16 -11 29 -8 13 -13 24 -9 24 3 0 54 -18 113 -40 127 -48 162 -40 57 13
-511 257 -1089 417 -1679 467 -109 9 -591 12 -675 3z m-97 -83 c121 -8 167
-15 196 -29 31 -16 58 -19 172 -19 128 1 139 -1 217 -30 45 -18 92 -32 106
-32 25 0 60 -36 50 -52 -3 -4 -18 -8 -35 -8 -16 0 -29 -5 -29 -10 0 -6 -11
-15 -25 -20 -28 -11 -31 -21 -14 -49 9 -14 8 -25 -4 -49 -9 -18 -11 -34 -6
-38 18 -11 8 -23 -51 -59 -73 -45 -90 -67 -90 -122 0 -41 -2 -44 -52 -73 -69
-40 -129 -56 -266 -74 -93 -12 -126 -21 -195 -54 -91 -44 -161 -62 -241 -62
-47 0 -58 -4 -97 -38 -60 -52 -120 -92 -140 -92 -9 0 -53 -42 -98 -92 -91
-102 -122 -118 -173 -92 -22 11 -28 22 -28 45 0 27 -3 31 -21 26 -24 -7 -69
11 -69 27 0 6 10 60 22 121 21 106 24 113 86 198 69 93 117 130 187 143 57 10
74 20 47 28 -22 7 -28 31 -14 52 4 6 25 21 47 32 23 11 47 31 54 45 7 14 48
50 90 80 43 31 83 62 90 71 12 14 8 16 -33 16 -53 0 -69 19 -42 49 28 30 2 30
-108 -2 -108 -30 -168 -31 -212 -2 -42 27 -46 48 -15 81 24 26 46 34 147 57
66 14 130 28 144 30 50 8 249 7 403 -3z m1498 -101 c27 -12 48 -27 46 -33 -5
-15 -115 -20 -133 -5 -26 22 -10 49 34 58 2 1 26 -9 53 -20z m-234 -49 c17 -6
35 -21 41 -34 13 -29 48 -39 66 -20 19 19 37 18 29 -1 -3 -9 2 -24 12 -35 19
-21 13 -40 -15 -40 -10 0 -25 -9 -33 -21 l-15 -20 -63 24 c-35 14 -77 28 -94
32 -41 9 -97 53 -93 73 2 10 26 22 68 33 36 9 65 18 66 18 1 1 15 -4 31 -9z
m-830 -634 l19 -24 114 14 c62 7 123 11 136 8 34 -9 74 -60 74 -95 0 -37 -51
-71 -148 -98 -75 -21 -154 -15 -198 14 -13 8 -33 15 -44 15 -25 0 -37 25 -20
45 11 13 7 15 -22 15 -42 0 -50 7 -37 31 6 13 6 19 -1 19 -23 0 -7 31 28 54
47 32 76 32 99 2z m884 -580 c11 -13 38 -32 60 -41 30 -14 42 -26 50 -55 18
-58 81 -141 154 -200 43 -36 76 -72 91 -102 15 -29 29 -45 37 -42 17 6 65 -46
76 -82 10 -35 -18 -121 -46 -141 -10 -8 -50 -13 -104 -13 -81 0 -89 -2 -107
-25 -15 -19 -29 -25 -60 -25 -23 0 -44 -4 -47 -10 -3 -5 -13 -10 -21 -10 -10
0 -14 12 -14 40 0 35 5 43 42 70 l41 30 -46 0 c-51 0 -53 3 -37 62 7 23 24 48
45 64 37 28 42 53 29 137 l-7 37 -66 0 c-36 0 -72 -4 -79 -8 -9 -6 -29 -138
-32 -214 0 -5 -6 -8 -14 -8 -7 0 -34 -11 -60 -25 -66 -35 -129 -50 -154 -36
-47 25 -35 94 18 104 42 9 37 36 -9 52 -41 14 -45 22 -36 81 l6 44 44 0 c40 0
44 2 47 28 3 27 4 27 86 30 81 3 83 3 76 25 -16 53 -25 68 -34 62 -19 -12 -41
15 -29 36 7 15 6 21 -6 25 -22 9 -19 19 16 55 18 18 28 37 25 46 -15 38 33 45
65 9z m-5136 -2608 c8 -13 24 -51 35 -85 10 -34 27 -74 36 -88 18 -28 13 -77
-11 -109 -14 -19 -15 -19 -15 6 0 23 -6 27 -48 37 -42 11 -51 18 -74 60 -15
26 -30 66 -34 88 l-6 40 31 -5 c30 -4 31 -3 31 37 0 34 3 41 19 41 11 0 27
-10 36 -22z m146 -318 c10 -6 19 -19 19 -30 0 -11 12 -31 27 -45 l28 -25 -36
0 c-48 0 -78 26 -86 73 -5 30 -3 37 11 37 10 0 26 -5 37 -10z m4191 -127 c40
-36 10 -63 -71 -63 -43 0 -51 3 -51 19 0 13 10 20 31 25 16 3 37 13 45 21 19
19 23 19 46 -2z m82 -33 c20 -7 26 -16 26 -40 0 -27 -3 -30 -30 -30 -28 0 -30
2 -30 40 0 45 -1 44 34 30z m-1075 -1191 c6 -18 11 -34 11 -35 0 -2 -15 -4
-34 -4 -28 0 -35 4 -40 25 -8 33 -1 45 29 45 17 0 26 -8 34 -31z m184 -206
c12 -7 8 -43 -5 -43 -7 -1 -32 -5 -55 -9 l-43 -8 0 39 0 39 48 -7 c26 -3 50
-8 55 -11z"/>
<path d="M3096 8944 c-86 -30 -91 -34 -35 -34 34 1 52 8 79 30 19 17 32 30 30
29 -3 0 -36 -11 -74 -25z"/>
<path d="M2763 8811 c-359 -162 -691 -365 -1003 -615 -60 -48 -110 -89 -110
-90 0 -11 142 72 170 99 44 42 187 149 310 230 52 35 199 115 325 179 127 63
259 134 295 157 36 24 92 58 125 76 94 51 53 38 -112 -36z"/>
<path d="M6810 8637 c0 -3 183 -136 408 -295 l407 -291 290 -318 c159 -175
305 -331 324 -348 l35 -30 -24 35 c-50 71 -160 203 -276 331 -281 312 -667
626 -1034 844 -36 21 -80 47 -97 57 -18 11 -33 18 -33 15z"/>
<path d="M1391 7863 c-223 -225 -396 -436 -567 -689 -132 -198 -142 -228 -15
-46 165 235 418 540 562 677 77 73 197 215 182 215 -3 0 -76 -71 -162 -157z"/>
<path d="M6739 7931 l-45 -28 -28 20 c-27 19 -29 19 -63 3 l-35 -17 3 -77 c3
-60 9 -84 27 -109 12 -17 22 -44 22 -60 0 -60 -79 -176 -132 -196 -10 -3 -10
-7 -1 -17 10 -11 21 -9 58 11 45 23 47 24 60 5 14 -18 17 -18 124 9 109 28
109 28 116 62 4 25 -2 49 -28 106 -55 116 -55 117 -8 117 48 0 51 10 14 40
l-28 22 -3 -21 c-2 -12 -11 -21 -21 -21 -34 0 -39 18 -21 83 17 61 17 62 61
71 36 7 40 10 24 17 -34 13 -49 10 -96 -20z"/>
<path d="M7759 6906 c-8 -16 -6 -34 6 -66 9 -25 16 -65 15 -90 -1 -24 6 -71
14 -105 8 -33 17 -71 20 -85 8 -38 81 -90 128 -90 37 0 39 2 69 65 40 85 51
90 144 70 78 -18 132 -13 142 11 9 24 -25 98 -60 132 -30 29 -207 132 -227
132 -5 0 -20 -18 -32 -40 -34 -59 -64 -52 -126 26 -47 60 -78 73 -93 40z"/>
<path d="M630 6860 c-11 -22 -18 -40 -15 -40 2 0 14 18 25 40 11 22 18 40 15
40 -2 0 -14 -18 -25 -40z"/>
<path d="M6905 6641 c-3 -5 -1 -12 4 -15 5 -3 12 -18 16 -33 6 -26 177 -202
215 -223 8 -4 38 -11 67 -15 46 -6 52 -10 55 -32 3 -21 12 -28 61 -43 97 -30
155 -83 132 -119 -9 -16 -46 -13 -66 5 -35 32 -38 8 -4 -41 l34 -50 -17 -73
c-11 -46 -24 -77 -34 -83 -15 -8 -17 -19 -11 -69 7 -76 -5 -82 -86 -46 -32 14
-69 26 -83 26 -51 0 -64 50 -24 97 22 26 26 26 62 15 37 -11 40 -10 72 21 30
28 33 37 29 70 -8 59 -47 109 -108 139 -121 58 -147 68 -186 68 -38 0 -45 4
-80 49 -40 52 -73 74 -97 65 -9 -4 -15 7 -20 37 -8 52 -48 93 -100 103 -36 7
-41 5 -65 -26 -14 -18 -44 -52 -66 -76 l-40 -42 -87 11 c-111 15 -122 8 -115
-66 2 -27 7 -57 10 -65 4 -10 -18 -35 -65 -74 -38 -33 -81 -76 -95 -97 l-25
-38 14 -85 15 -85 -43 -55 c-61 -77 -94 -99 -243 -160 -73 -30 -134 -56 -136
-58 -3 -2 -1 -17 4 -34 l7 -29 155 -3 154 -2 168 85 c188 94 251 117 335 117
38 0 67 6 88 19 22 14 50 19 97 19 57 0 74 5 125 34 l59 35 59 -18 59 -17 -3
-51 c-3 -41 1 -60 23 -96 14 -25 30 -59 34 -75 8 -26 5 -34 -25 -63 -42 -41
-44 -59 -4 -59 18 0 33 -6 37 -15 10 -28 59 -44 161 -54 107 -10 145 -24 204
-77 41 -36 50 -40 148 -52 129 -15 157 6 133 102 -12 47 -13 67 -4 96 11 39
70 100 96 100 7 0 36 -14 63 -31 43 -26 64 -32 153 -40 57 -5 123 -6 147 -3
38 6 47 13 85 67 38 54 46 60 81 63 44 4 56 16 56 59 0 62 -43 233 -86 340
-24 60 -44 116 -44 123 0 12 -4 11 -22 -2 -60 -43 -86 -56 -115 -56 -29 0 -33
-3 -39 -37 -9 -53 -20 -64 -50 -52 -33 12 -33 12 -27 -11 5 -20 -12 -50 -28
-50 -17 0 -10 68 8 74 15 6 15 8 3 16 -8 6 -23 10 -32 10 -31 0 -97 53 -98 78
0 15 -6 22 -19 22 -25 0 -44 25 -37 48 5 16 0 21 -24 25 -23 5 -30 12 -30 29
0 13 -5 30 -10 38 -7 11 -10 7 -10 -18 0 -26 -4 -33 -17 -30 -14 3 -18 14 -19
55 0 49 -15 83 -37 83 -6 0 -7 -17 -4 -44 5 -32 2 -47 -8 -56 -8 -7 -15 -18
-15 -25 0 -7 40 -43 90 -81 87 -67 108 -98 75 -110 -8 -4 -22 -1 -29 6 -24 19
-40 -24 -32 -86 6 -51 5 -54 -18 -60 -41 -10 -58 -1 -100 52 -23 28 -56 59
-73 67 -26 13 -34 24 -39 57 -5 31 -13 44 -35 56 -16 8 -40 32 -54 53 -13 22
-29 42 -34 45 -5 4 -17 30 -25 59 -8 28 -22 62 -30 73 -24 34 -215 141 -280
158 -60 16 -76 28 -76 57 0 8 -6 24 -14 35 -12 15 -17 17 -27 7 -24 -24 -56
-15 -68 17 -10 30 -43 42 -56 21z m-66 -353 c10 -75 14 -86 45 -113 28 -25 35
-39 41 -84 3 -30 9 -67 12 -82 5 -25 2 -29 -16 -29 -14 0 -21 -6 -21 -20 0
-16 -7 -20 -36 -20 -41 0 -49 15 -79 139 -16 68 -17 76 -2 101 16 26 15 28 -8
50 -20 19 -25 33 -25 76 0 55 5 62 51 63 25 1 26 -2 38 -81z m1529 -363 c-12
-36 -28 -48 -52 -39 -43 16 -12 74 39 74 22 0 22 -2 13 -35z m-317 -107 c21
-33 -63 -75 -96 -48 -10 8 -19 8 -33 1 -22 -12 -47 8 -40 30 10 31 152 45 169
17z"/>
<path d="M8608 5285 c-12 -26 -8 -37 65 -179 42 -83 81 -169 87 -191 6 -26 21
-49 43 -66 31 -25 34 -33 51 -140 21 -124 25 -136 68 -191 16 -20 43 -76 61
-125 29 -78 37 -90 72 -110 22 -13 43 -23 46 -23 10 0 29 50 29 78 0 37 11 72
21 72 5 0 10 -44 11 -97 l1 -98 8 90 c4 50 6 191 6 315 -1 214 -1 218 -8 85
-5 -121 -6 -109 -5 85 1 124 0 206 -2 183 -2 -27 -8 -43 -16 -43 -16 0 -35
-168 -43 -380 -7 -184 -27 -222 -53 -99 -8 39 -42 115 -92 210 -55 105 -82
169 -93 219 -8 39 -15 73 -15 75 0 2 -19 26 -43 54 -24 27 -67 94 -97 148 -30
54 -62 111 -71 127 l-18 29 -13 -28z"/>
<path d="M52 4420 c-2 -46 25 -352 41 -460 l12 -85 6 100 c3 55 1 166 -5 248
-9 129 -12 147 -28 147 -13 0 -18 10 -21 43 -3 38 -4 39 -5 7z"/>
<path d="M9152 4120 c0 -14 2 -19 5 -12 2 6 2 18 0 25 -3 6 -5 1 -5 -13z"/>
<path d="M9081 3664 c0 -11 3 -14 6 -6 3 7 2 16 -1 19 -3 4 -6 -2 -5 -13z"/>
<path d="M9041 3494 c0 -11 3 -14 6 -6 3 7 2 16 -1 19 -3 4 -6 -2 -5 -13z"/>
<path d="M9021 3414 c0 -11 3 -14 6 -6 3 7 2 16 -1 19 -3 4 -6 -2 -5 -13z"/>
<path d="M8801 2789 c-12 -29 -20 -54 -18 -56 2 -2 14 20 26 48 12 29 20 54
18 56 -2 2 -14 -20 -26 -48z"/>
<path d="M550 2500 c6 -11 13 -20 16 -20 2 0 0 9 -6 20 -6 11 -13 20 -16 20
-2 0 0 -9 6 -20z"/>
<path d="M910 1906 c0 -2 8 -10 18 -17 15 -13 16 -12 3 4 -13 16 -21 21 -21
13z"/>
<path d="M970 1826 c0 -2 8 -10 18 -17 15 -13 16 -12 3 4 -13 16 -21 21 -21
13z"/>
<path d="M1040 1736 c0 -2 8 -10 18 -17 15 -13 16 -12 3 4 -13 16 -21 21 -21
13z"/>
<path d="M1080 1686 c0 -2 8 -10 18 -17 15 -13 16 -12 3 4 -13 16 -21 21 -21
13z"/>
<path d="M1135 1620 c10 -11 20 -20 23 -20 3 0 -3 9 -13 20 -10 11 -20 20 -23
20 -3 0 3 -9 13 -20z"/>
<path d="M1210 1535 c13 -14 26 -25 28 -25 3 0 -5 11 -18 25 -13 14 -26 25
-28 25 -3 0 5 -11 18 -25z"/>
<path d="M1280 1457 c0 -2 15 -16 33 -33 l32 -29 -29 33 c-28 30 -36 37 -36
29z"/>
<path d="M1480 1255 c19 -19 36 -35 39 -35 3 0 -10 16 -29 35 -19 19 -36 35
-39 35 -3 0 10 -16 29 -35z"/>
<path d="M1570 1177 c0 -2 15 -16 33 -33 l32 -29 -29 33 c-28 30 -36 37 -36
29z"/>
<path d="M1665 1090 c10 -11 20 -20 23 -20 3 0 -3 9 -13 20 -10 11 -20 20 -23
20 -3 0 3 -9 13 -20z"/>
<path d="M1720 1045 c13 -14 26 -25 28 -25 3 0 -5 11 -18 25 -13 14 -26 25
-28 25 -3 0 5 -11 18 -25z"/>
<path d="M1775 1000 c10 -11 20 -20 23 -20 3 0 -3 9 -13 20 -10 11 -20 20 -23
20 -3 0 3 -9 13 -20z"/>
<path d="M1845 948 c37 -34 145 -110 145 -104 0 5 -139 109 -165 125 -6 3 3
-6 20 -21z"/>
</g>
</svg>
